<svg xmlns="https://www.w3.org/2000/svg" class="logo" viewBox="0 0 172.7 23.4">

<g>
	<path d="M60.9,14.7v8.5h-4.2v-7.6c0-2.2,0-4.9-2.9-4.6c-0.8,0.1-2.6,0.4-2.6,4.8v7.4h-4.1v-7.6
		c0-2.2,0-4.9-2.9-4.6c-0.8,0.1-2.6,0.4-2.6,4.8v7.4h-4.1V7.5h3.4l0.2,1.7h0.5c0.6-0.8,1.8-1.8,3.8-1.8c1.8,0,3.1,0.8,4.1,2.2H50
		c0.8-1,2.4-2.2,5-2.2C59,7.3,60.9,10.3,60.9,14.7z"/>
	<path d="M64.3,15.4c0-5,3.9-8,8.1-8c4.2,0,7.9,3,7.9,8c0,5-3.8,8-8.1,8C68,23.4,64.3,20.3,64.3,15.4z
		 M76.2,15.4c0-2.4-1.4-4.4-3.8-4.4c-2.4,0-4,1.9-4,4.4c0,2.4,1.6,4.4,4,4.4C74.8,19.7,76.2,17.8,76.2,15.4z"/>
	<path d="M98.6,14.7v8.5h-4.2v-7.6c0-0.5,0.2-4.5-2.8-4.6c-1.5-0.1-3.9,0.7-3.9,4.8v7.4h-4.1V7.5H87
		l0.3,1.9h0.5c0.7-0.8,1.9-2.1,4.6-2.1C96.4,7.4,98.6,10.4,98.6,14.7z"/>
	<path d="M141.3,7.5v15.7h-3.1l-0.4-1.5h-0.5c-1,1.1-2.3,1.7-4,1.7c-4,0-7.3-3.3-7.3-8s3.3-8,7.3-8
		c1.6,0,3,0.6,4,1.7V7.5H141.3z M137.4,15.4c0-2.6-1.4-4.1-3.4-4.1c-1.9,0-3.8,1.4-3.8,4.1c0,2.8,1.9,4.1,3.8,4.1
		C136,19.5,137.4,18,137.4,15.4z"/>
	<path d="M155.7,7.4v4c-0.3-0.1-0.8-0.1-1.4-0.1c-2.2,0-4.5,1.1-4.5,4v7.9h-4.2V7.5h3.4l0.3,1.7h0.5
		c0.7-0.7,2.2-1.9,4.8-1.9H155.7z"/>
	<path d="M165.4,19.8c-1.7,0-3.6-0.9-4.1-3.3h11.2l0.3-0.6c0.2-6-3.7-8.6-7.6-8.6c-4.1,0-7.8,3-7.8,7.9
		c0,4.9,3.7,8.1,7.9,8.1c2.7,0,5.2-1.2,6.6-3.7l-3.3-1.3C168.5,18.3,167.6,19.8,165.4,19.8z M165.2,10.8c1.6,0,2.9,0.8,3.3,2.6h-7.1
		C162.1,11.8,163.5,10.8,165.2,10.8z"/>
	<path d="M26.8,19.8c-1.7,0-3.6-0.9-4.1-3.3h11.2l0.3-0.6c0.2-6-3.7-8.6-7.6-8.6c-4.1,0-7.8,3-7.8,7.9
		c0,4.9,3.7,8.1,7.9,8.1c2.7,0,5.2-1.2,6.6-3.7L30,18.3C30,18.3,29,19.8,26.8,19.8z M26.7,10.8c1.6,0,2.9,0.8,3.3,2.6H23
		C23.6,11.8,25,10.8,26.7,10.8z"/>
	<path d="M11.7,0.9v8.1c-1-1.1-2.5-1.7-4.2-1.7c-4.1,0-7.5,3.3-7.5,8s3.4,8,7.5,8c1.7,0,3.1-0.6,4.1-1.7
		h0.5l0.4,1.5h3.1V0.9H11.7z M8.1,19.5c-2,0-4-1.4-4-4.1s2-4.1,4-4.1c2.1,0,3.6,1.5,3.6,4.1S10.2,19.5,8.1,19.5z"/>
	<g>
		<polygon points="120.2,8.5 117.8,17 117.4,17 114.4,9.1 110.9,9.1 107.9,17 107.5,17 105.1,8.5 
			101,7.5 105.1,23.2 109.5,23.2 112.5,14.5 112.8,14.5 115.7,23.2 120.1,23.2 124.2,7.5 		"/>
		<path d="M120.2,0c1.1,1.3,1,3.2-0.4,4.4c-1.3,1.1-3.3,0.9-4.4-0.4L120.2,0z"/>
		<path d="M109.9,4c-1.1,1.3-3.1,1.5-4.4,0.4c-1.3-1.1-1.5-3.1-0.4-4.4L109.9,4z"/>
	</g>
</g>
</svg>
